<svg xmlns="http://www.w3.org/2000/svg" data-name="1" viewBox="0 0 128 128" id="mac-desktop"><path d="M122 8H6a6 6 0 0 0-6 6v84a6 6 0 0 0 6 6h56v12H31a2 2 0 0 0 0 4h66a2 2 0 0 0 0-4H66v-12h56a6 6 0 0 0 6-6V14a6 6 0 0 0-6-6ZM6 12h116a2 2 0 0 1 2 2v10H4V14a2 2 0 0 1 2-2Zm116 88H6a2 2 0 0 1-2-2V28h120v70a2 2 0 0 1-2 2Z"></path><circle cx="116" cy="18" r="2"></circle><circle cx="108" cy="18" r="2"></circle><circle cx="100" cy="18" r="2"></circle><path d="M86 74.92c-.24-.11-5.94-2.76-5.94-8.59a9.27 9.27 0 0 1 4.56-7.73 2 2 0 0 0 1-1.27 2 2 0 0 0-.27-1.59 15.59 15.59 0 0 0-2.71-3.05c-2.6-2.22-7.17-2.81-9.45-2.81a20.19 20.19 0 0 0-6.42 1.67 21.65 21.65 0 0 1-2.2.77 16 16 0 0 1-1.66-.54c-2.72-1-6.84-2.39-10.64-1.24-9.61 2.9-11.13 12.23-11.34 16.11-.34 6.15 4.5 16.31 6 18.55l.32.49c1.68 2.5 4 5.93 8.36 6.28h.8a14.87 14.87 0 0 0 5.29-1.18 10.18 10.18 0 0 1 3.38-.79 10.66 10.66 0 0 1 3.59.86A15.2 15.2 0 0 0 74 92c3.64 0 6.17-3.16 7.84-5.25a13.34 13.34 0 0 1 1-1.16C84.43 84 86.43 79 87 77.47a2 2 0 0 0-1-2.55zm-6 7.82a18.11 18.11 0 0 0-1.28 1.49c-1.2 1.49-3 3.77-4.72 3.77a11.45 11.45 0 0 1-4-.93A14.31 14.31 0 0 0 65.08 86a13.52 13.52 0 0 0-4.79 1.1 10.25 10.25 0 0 1-4.39.9c-2.46-.19-3.93-2.39-5.35-4.52l-.34-.5c-1.48-2.18-5.59-11.48-5.34-16.09.17-3 1.32-10.34 8.5-12.5a6.4 6.4 0 0 1 1.87-.25 20.35 20.35 0 0 1 6.3 1.44 9.73 9.73 0 0 0 3 .76 11.26 11.26 0 0 0 3.63-1 18.31 18.31 0 0 1 5-1.41c2.3 0 5.49.69 6.86 1.85q.41.36.75.72A12.83 12.83 0 0 0 76 66.33c0 6.12 4.17 9.72 6.61 11.29A24.6 24.6 0 0 1 80 82.74zm-15.88-34.1h.58a10.47 10.47 0 0 0 8.36-4.49 12.62 12.62 0 0 0 2.71-8.4 2 2 0 0 0-.77-1.32 2 2 0 0 0-1.46-.43 15 15 0 0 0-8 3.87c-3.38 3.38-3.24 8.62-3.23 8.84a2 2 0 0 0 1.81 1.93zm4.3-7.93a9.45 9.45 0 0 1 3-2 10.24 10.24 0 0 1-1.57 3 7.17 7.17 0 0 1-3.25 2.53 7.27 7.27 0 0 1 1.82-3.53z"></path></svg>