<?xml version="1.0" encoding="iso-8859-1"?>
<!-- Uploaded to: SVG Repo, www.svgrepo.com, Generator: SVG Repo Mixer Tools -->
<svg version="1.1" id="Layer_1" xmlns="http://www.w3.org/2000/svg" xmlns:xlink="http://www.w3.org/1999/xlink" 
	 viewBox="0 0 511.586 511.586" xml:space="preserve">
<path style="fill:#5D9CEC;" d="M354.169,187.955l-0.765-0.218c-12.818-3.482-22.218-6.792-27.885-8.978
	c-20.047-7.712-25.276-13.271-26.604-15.91c-0.047-0.093-0.078-0.187-0.125-0.281l-0.188-24.528l-85.636,0.984l-0.171,23.544
	c-0.031,0.094-0.078,0.188-0.125,0.281c-1.327,2.639-6.542,8.197-26.604,15.925c-5.652,2.17-15.066,5.48-27.759,8.931l-0.875,0.25
	c-11.553,3.872-19.344,14.708-19.344,26.933v56.174h235.409v-56.174C373.497,202.662,365.723,191.827,354.169,187.955z"/>
<polygon style="fill:#F5F7FA;" points="287.769,155.152 223.818,155.152 235.824,192.592 226.394,263.067 287.112,263.067 
	277.683,192.436 "/>
<polygon style="fill:#E6E9ED;" points="235.824,192.592 226.394,263.067 287.112,263.067 277.698,192.561 235.809,192.561 "/>
<polygon style="fill:#434A54;" points="106.581,234.481 127.893,362.381 383.692,362.381 405.005,234.481 "/>
<rect x="149.223" y="277.116" style="fill:#656D78;" width="213.16" height="234.47"/>
<path style="fill:#EAC6BB;" d="M322.491,93.248c0,43.341-41.312,85.012-66.698,85.012c-25.387,0-66.698-41.671-66.698-85.012
	s29.867-71.929,66.698-71.929S322.491,49.907,322.491,93.248z"/>
<path style="fill:#656D78;" d="M298.774,12.857c-11.35-10.273-49.367-22.888-87.306,0c-19.204,11.585-33.177,62.779-33.177,62.779
	s37.471,21.233,86.229-1.717c29.18-13.739,28.524-6.542,36.861,5.964c4.949,7.416,21.109,12.755,21.109,12.755
	S335.06,45.707,298.774,12.857z"/>
</svg>